<svg width="43" height="40" viewBox="0 0 43 40" fill="none" xmlns="http://www.w3.org/2000/svg">
<path d="M15.6569 29.9198C15.7664 29.8918 15.8465 29.9238 15.8905 30.03C15.1737 30.03 14.4572 30.03 13.7405 30.03C13.7375 30.0015 13.7192 29.9831 13.6924 29.9858C13.5947 29.9952 13.5131 29.9515 13.4297 29.9135C13.6826 29.9048 13.9326 29.9223 14.1851 29.9513C14.6177 30.001 15.0545 29.9916 15.49 29.9902C15.5553 29.9898 15.6225 29.9923 15.6569 29.9198Z" fill="#5B8388"/>
<path d="M24.1352 39.8892C24.0825 40.0008 23.9788 39.9973 23.8776 39.9976C23.2062 39.9996 22.5327 40.0142 21.8658 39.9375C21.4768 39.8927 21.0911 39.8658 20.7012 39.8791C20.3528 39.8631 19.9993 39.9049 19.6606 39.7826C19.6154 39.7663 19.5609 39.769 19.5112 39.7707C19.0185 39.7909 18.5463 39.6156 18.0548 39.6262C17.7366 39.4595 17.3729 39.5261 17.0339 39.4411C16.741 39.3677 16.4297 39.3188 16.1259 39.2664C15.8348 39.2161 15.538 39.1764 15.2554 39.073C15.0887 39.012 14.907 38.988 14.7334 38.9498C13.9641 38.7807 13.2165 38.5412 12.4752 38.288C11.7957 38.0558 11.1318 37.7801 10.4722 37.4914C9.31296 36.9841 8.21699 36.3773 7.17557 35.6704C6.01029 34.8794 4.97278 33.9478 4.04285 32.8985C3.27715 32.0347 2.63229 31.0888 2.08114 30.082C1.73942 29.4577 1.44531 28.8115 1.20575 28.1402C1.02946 27.6462 0.860414 27.1529 0.717278 26.6474C0.493986 25.8599 0.341509 25.0636 0.220973 24.2561C0.148049 23.7668 0.133886 23.2755 0.0772346 22.7872C-0.0185911 21.961 -0.0200978 21.133 0.0443886 20.31C0.0865761 19.7731 0.0959176 19.2318 0.198674 18.6964C0.269187 18.3303 0.29902 17.953 0.381587 17.5888C0.478618 17.1603 0.566307 16.7291 0.703718 16.3083C0.800146 16.013 0.876686 15.7104 0.981552 15.4169C1.20575 14.7876 1.46912 14.1755 1.77076 13.5776C2.04648 13.0306 2.35837 12.5047 2.70159 11.9986C3.0177 11.5325 3.36906 11.0895 3.73518 10.658C4.41862 9.85219 5.18794 9.1308 6.02385 8.48492C7.0258 7.71052 8.09676 7.03503 9.24094 6.47562C9.77522 6.21443 10.3167 5.97337 10.8688 5.74949C11.234 5.60142 11.6016 5.4495 11.9726 5.3269C12.2808 5.22503 12.5988 5.12642 12.9115 5.03224C13.2735 4.92297 13.6507 4.86256 14.0042 4.71775C14.154 4.65644 14.3324 4.63512 14.4915 4.60965C14.7663 4.56583 15.0275 4.46869 15.3084 4.44293C15.5724 4.41865 15.8342 4.34816 16.0994 4.30641C16.7114 4.20987 17.321 4.11125 17.9424 4.08342C18.251 4.0695 18.5635 4.07809 18.8696 4.01027C18.9645 3.98925 19.0688 4.00701 19.1818 4.00701C19.1752 4.12576 19.1083 4.17611 19.0121 4.23919C18.4402 4.61291 17.8728 4.99552 17.3391 5.42048C16.3561 6.20377 15.406 7.02407 14.5668 7.95898C13.9964 8.59449 13.4546 9.25014 12.9564 9.94547C12.3749 10.7572 11.8789 11.6127 11.454 12.5071C11.124 13.2018 10.8606 13.9244 10.653 14.6683C10.5289 15.114 10.4234 15.5632 10.3432 16.0148C10.2507 16.5369 10.1525 17.0626 10.1582 17.598C10.1636 18.1011 10.1606 18.6046 10.173 19.1077C10.1832 19.5315 10.2902 19.9413 10.3782 20.3541C10.4749 20.8075 10.615 21.2452 10.7757 21.6796C11.0068 22.3054 11.3105 22.8977 11.6697 23.4568C12.1308 24.1743 12.6792 24.8288 13.3096 25.4134C13.9686 26.0243 14.6943 26.5452 15.4865 26.9764C16.0898 27.3048 16.7205 27.5793 17.3762 27.7804C18.0238 27.9791 18.6876 28.1189 19.3653 28.2071C20.2763 28.3256 21.186 28.32 22.0961 28.2634C22.8048 28.2193 23.5151 28.1509 24.2154 28.0368C24.6852 27.9604 25.1537 27.855 25.6154 27.7209C26.0282 27.6009 26.0095 27.6291 25.9936 28.0049C25.9683 28.6037 25.7293 29.1311 25.427 29.6384C24.8937 30.5339 24.125 31.2224 23.3578 31.9103C22.7551 32.4508 22.0927 32.9243 21.5015 33.4781C20.963 33.9827 20.4064 34.4707 20.0367 35.1237C19.7649 35.6038 19.6835 36.1122 19.748 36.6477C19.7664 36.8002 19.8737 36.9361 19.861 37.0993C19.8472 37.1958 19.8152 37.3006 19.9632 37.3273C19.9722 37.3676 19.9816 37.4078 19.9906 37.4481C20.0551 37.6557 20.1404 37.8497 20.3386 37.9714L20.3426 37.9889C20.3245 38.0762 20.3802 38.0925 20.4495 38.0955C20.458 38.1162 20.4661 38.1369 20.4742 38.1577C20.5493 38.2963 20.6406 38.4165 20.8111 38.4485L20.8226 38.4677C20.9986 38.7502 21.2876 38.8761 21.5817 38.9943C21.5817 38.9943 21.6058 39.0108 21.6055 39.0105C21.6534 39.0739 21.71 39.1287 21.7851 39.1601C22.156 39.3156 22.5185 39.4986 22.9024 39.6117C23.0826 39.6647 23.2535 39.8154 23.4671 39.7447C23.5117 39.75 23.5566 39.7553 23.6012 39.7607C23.6645 39.8862 23.7712 39.8939 23.892 39.8631C23.9731 39.8732 24.0541 39.8812 24.1352 39.8892Z" fill="#383636"/>
<path d="M18.7562 0.0357801C18.978 -0.0228352 19.1932 0.00765662 19.4066 0.0100249C19.4663 0.010617 19.5263 0.0319316 19.5857 0.0301554C20.3684 0.00676851 21.1487 0.0849222 21.9258 0.137617C22.5596 0.180542 23.2064 0.174029 23.8319 0.330633C23.8894 0.345138 23.9518 0.348691 24.0115 0.345731C24.4467 0.323824 24.8657 0.447567 25.2916 0.49967C25.7422 0.554733 26.1952 0.634958 26.6398 0.732059C27.0482 0.821166 27.4686 0.860538 27.8662 0.981025C28.2336 1.09204 28.6122 1.15717 28.9769 1.28446C29.262 1.38393 29.5643 1.44403 29.8537 1.5435C30.2524 1.68086 30.6693 1.77352 31.0575 1.93367C31.5111 2.12106 31.9756 2.28151 32.4226 2.48785C32.9738 2.74215 33.5197 3.00384 34.0568 3.28567C35.1464 3.85732 36.1485 4.55508 37.1031 5.32004C37.7373 5.82833 38.3075 6.40649 38.857 6.99945C39.1295 7.29371 39.3805 7.61225 39.6216 7.9367C39.9032 8.31563 40.1777 8.69781 40.4336 9.09332C40.7444 9.57379 41.0265 10.0711 41.2749 10.5859C41.4328 10.9134 41.5986 11.2399 41.7221 11.58C41.8524 11.9385 42.0311 12.2855 42.1143 12.6532C42.1951 13.0096 42.3759 13.3409 42.3828 13.7136C42.5694 13.93 42.4238 14.2393 42.6004 14.4631C42.6366 14.509 42.6279 14.5978 42.6218 14.6653C42.6098 14.7977 42.6276 14.9196 42.6999 15.0342C42.7204 15.0665 42.7391 15.1088 42.7358 15.1446C42.6957 15.5712 42.9172 15.9714 42.8633 16.4001C42.8512 16.4957 42.8618 16.5999 42.888 16.6932C42.9609 16.9522 42.9844 17.2148 42.989 17.4818C43.0034 18.3498 43.0067 19.2178 42.9799 20.0858C42.9784 20.1343 42.9694 20.1834 42.9588 20.2311C42.8991 20.4996 42.8395 20.766 42.8666 21.0467C42.8817 21.2018 42.8672 21.3629 42.7958 21.5103C42.7511 21.6021 42.7421 21.6986 42.7472 21.7986C42.7551 21.9573 42.7521 22.1142 42.6589 22.2551C42.6191 22.3152 42.608 22.3871 42.6164 22.4549C42.636 22.6083 42.608 22.748 42.5245 22.8792C42.5094 22.9028 42.5031 22.9357 42.5022 22.9644C42.4904 23.3552 42.3337 23.7161 42.2309 24.0831C42.1215 24.4742 41.9482 24.8546 41.8041 25.2383C41.5919 25.8025 41.2975 26.3238 41.0389 26.8635C40.9319 27.087 40.792 27.296 40.6552 27.5062C40.4746 27.7836 40.3058 28.0678 40.1 28.3289C39.911 28.5681 39.7268 28.8108 39.54 29.0518C39.5156 29.0832 39.4845 29.1095 39.4619 29.1415C39.0351 29.7487 38.4905 30.2537 37.9461 30.7502C37.4428 31.209 36.9003 31.6309 36.3378 32.0223C35.6753 32.4835 34.9884 32.9095 34.2768 33.292C33.7493 33.5753 33.1942 33.8091 32.6498 34.0619C32.0458 34.3423 31.4122 34.5498 30.7865 34.7748C30.3642 34.9267 29.9278 35.0424 29.4938 35.1591C29.023 35.2858 28.5519 35.4196 28.0724 35.5025C27.7776 35.5534 27.4762 35.5951 27.1892 35.665C26.7603 35.7695 26.3127 35.726 25.892 35.8669C25.7913 35.9006 25.6729 35.8849 25.5625 35.8867C25.1816 35.8926 24.8048 35.9353 24.428 35.9883C24.29 36.0078 24.1474 35.9968 24.007 35.9977C23.9579 35.998 23.8964 36.0028 23.8804 35.945C23.8626 35.8805 23.9084 35.8361 23.96 35.8009C24.0573 35.7346 24.1556 35.6694 24.252 35.6019C24.9745 35.0954 25.6747 34.5625 26.3574 34.003C27.0057 33.4716 27.5922 32.8825 28.1845 32.2967C28.6782 31.8085 29.1225 31.2792 29.5574 30.7389C30.0677 30.1054 30.5222 29.4355 30.9348 28.7428C31.2805 28.1625 31.5801 27.5524 31.8267 26.9192C31.972 26.5462 32.1471 26.1788 32.2438 25.7948C32.3454 25.3916 32.5136 25.008 32.5657 24.5855C32.5959 24.3422 32.6628 24.0905 32.7083 23.8422C32.7426 23.6539 32.8424 23.4683 32.7499 23.2664C32.7216 23.2048 32.7634 23.1329 32.7794 23.0654C32.922 22.4659 32.9271 21.8558 32.903 21.2459C32.8949 21.0423 32.8352 20.8407 32.8035 20.6373C32.7858 20.523 32.7384 20.412 32.7842 20.2894C32.8026 20.24 32.7867 20.1707 32.768 20.1165C32.6564 19.795 32.6332 19.4522 32.5344 19.1313C32.4696 18.9214 32.3804 18.7077 32.311 18.5011C32.2013 18.174 32.0392 17.877 31.9008 17.5665C31.6705 17.049 31.3797 16.5691 31.0421 16.1094C30.6638 15.5943 30.2582 15.1088 29.7925 14.668C29.2295 14.1348 28.6064 13.6798 27.9479 13.2713C27.4065 12.9353 26.8266 12.6665 26.235 12.4311C25.9381 12.313 25.6231 12.2251 25.3127 12.1345C25.0866 12.0688 24.8383 12.0738 24.6303 11.9471C24.614 11.937 24.5917 11.9305 24.5727 11.9314C24.1999 11.9492 23.8545 11.7858 23.4804 11.7834C22.9807 11.7801 22.4873 11.6514 21.983 11.6887C21.2642 11.7417 20.542 11.7606 19.8259 11.8251C19.3044 11.8722 18.777 11.9418 18.2646 12.0575C17.9125 12.1372 17.5481 12.1934 17.2157 12.3465C17.096 12.4015 17.0424 12.3462 17.0207 12.247C17.0041 12.1712 16.9884 12.083 17.0119 12.0131C17.1274 11.6718 17.1566 11.3115 17.3025 10.9732C17.6931 10.0673 18.3279 9.34347 19.0395 8.68301C19.4922 8.26264 19.966 7.86092 20.4504 7.47281C21.2304 6.84788 21.9842 6.19157 22.6473 5.44378C23.0268 5.01601 23.2429 4.50742 23.3448 3.95264C23.3677 3.8286 23.3701 3.69953 23.3189 3.57371C23.2857 3.4926 23.2643 3.4032 23.2571 3.31616C23.2119 2.76761 22.9566 2.31734 22.5871 1.92124C22.0138 1.30637 21.3136 0.885702 20.5206 0.593809C19.96 0.387472 19.3949 0.205113 18.808 0.0881786C18.7936 0.0852182 18.7824 0.0627195 18.7562 0.0357801Z" fill="#5B8388"/>
<path d="M15.2232 29.8351C15.0844 29.881 14.9738 29.7835 14.8569 29.749C14.6079 29.6757 14.3727 29.557 14.1321 29.4563C14.0836 29.436 14.0467 29.4004 14.0156 29.3594C14.1868 29.3709 14.3174 29.4828 14.4689 29.5425C14.6819 29.6265 14.896 29.7041 15.116 29.7664C15.1594 29.7789 15.205 29.786 15.2232 29.8351Z" fill="#5B8388"/>
<path d="M14.0006 29.3454C13.8095 29.2688 13.6221 29.1871 13.5078 29.0039C13.6891 29.0942 13.8484 29.2148 14.0006 29.3454Z" fill="#5B8388"/>
<path d="M13.1957 28.6805C13.0664 28.6015 13.0108 28.4756 12.9688 28.3408C12.9815 28.3424 13.0041 28.341 13.0057 28.3458C13.0446 28.4708 13.1753 28.5459 13.1957 28.6805Z" fill="#5B8388"/>
<path d="M13.4998 28.9933C13.3887 28.9726 13.3292 28.8944 13.2803 28.8047C13.3851 28.8323 13.432 28.9245 13.4998 28.9933Z" fill="#5B8388"/>
<path d="M15.4975 29.9076C15.4191 29.9276 15.3497 29.9224 15.3083 29.8412C15.3862 29.8232 15.4581 29.8215 15.4975 29.9076Z" fill="#5B8388"/>
<path d="M12.9478 28.2618C12.8535 28.2449 12.8738 28.1783 12.8827 28.1171C12.9545 28.1438 12.9745 28.1926 12.9478 28.2618Z" fill="#5B8388"/>
<path d="M13.2684 28.7646C13.2225 28.7626 13.1856 28.7521 13.1976 28.6943C13.2275 28.7119 13.2712 28.7158 13.2684 28.7646Z" fill="#5B8388"/>
</svg>
