<svg width="48" height="48" viewBox="0 0 48 48" fill="none" xmlns="http://www.w3.org/2000/svg">
<rect x="0.5" y="0.5" width="47" height="47" rx="23.5" stroke="#E9E8E5"/>
<path d="M33 19H15C14.4 19 14 18.6 14 18C14 17.4 14.4 17 15 17H33C33.6 17 34 17.4 34 18C34 18.6 33.6 19 33 19Z" fill="#383636"/>
<path d="M33 25H15C14.4 25 14 24.6 14 24C14 23.4 14.4 23 15 23H33C33.6 23 34 23.4 34 24C34 24.6 33.6 25 33 25Z" fill="#383636"/>
<path d="M33 31H15C14.4 31 14 30.6 14 30C14 29.4 14.4 29 15 29H33C33.6 29 34 29.4 34 30C34 30.6 33.6 31 33 31Z" fill="#383636"/>
</svg>
