<svg width="191" height="33" viewBox="0 0 191 33" fill="none" xmlns="http://www.w3.org/2000/svg">
<path d="M104.928 32.4996C104.842 32.3071 104.857 32.121 104.95 31.9334C105.375 31.0705 105.797 30.2053 106.222 29.3424C106.49 28.7975 106.773 28.2592 107.032 27.7098C107.334 27.0705 107.663 26.4452 107.968 25.8083C108.379 24.9525 108.8 24.1021 109.221 23.2515C109.79 22.1027 110.352 20.9508 110.916 19.7999C111.272 19.0743 111.642 18.3555 111.988 17.6259C112.261 17.0492 112.563 16.4868 112.832 15.9086C113.203 15.1097 113.614 14.331 113.996 13.5377C114.276 12.9565 114.588 12.3901 114.849 11.8016C115.186 11.0439 115.59 10.3206 115.926 9.56295C116.184 8.98124 116.489 8.42029 116.776 7.85156C116.881 7.6435 117.063 7.55599 117.287 7.54514C117.373 7.54089 117.459 7.54419 117.545 7.54419C118.508 7.54419 119.47 7.54396 120.433 7.54443C120.526 7.54443 120.621 7.5574 120.713 7.55976C120.952 7.56566 121.07 7.71167 121.164 7.90251C121.728 9.04351 122.293 10.1838 122.857 11.3246C123.164 11.9462 123.474 12.5665 123.776 13.1909C124.073 13.8045 124.415 14.3964 124.702 15.0141C124.861 15.3552 125.028 15.6916 125.196 16.028C125.508 16.6531 125.81 17.2837 126.127 17.9062C126.465 18.5688 126.767 19.25 127.095 19.9179C127.394 20.5255 127.712 21.1233 128.012 21.7304C128.261 22.2345 128.492 22.7478 128.739 23.2536C128.964 23.7162 129.199 24.1743 129.431 24.6335C129.533 24.8348 129.651 25.0284 129.739 25.2353C129.884 25.5743 129.689 25.8562 129.348 25.9364C129.281 25.9522 129.208 25.9423 129.137 25.9423C128.003 25.9425 126.868 25.938 125.733 25.9468C125.522 25.9484 125.366 25.8802 125.211 25.7432C125.122 25.6642 125.079 25.5561 125.052 25.4703C124.954 25.1556 124.78 24.8808 124.644 24.5868C124.385 24.0294 124.112 23.4789 123.852 22.9222C123.792 22.7934 123.713 22.7195 123.569 22.7235C123.514 22.725 123.459 22.7242 123.405 22.7242C121.276 22.7242 119.147 22.7238 117.019 22.7252C116.758 22.7254 116.552 22.6535 116.437 22.3909C116.384 22.2694 116.39 22.1664 116.443 22.0543C116.536 21.8581 116.628 21.6608 116.719 21.4636C116.892 21.0902 117.054 20.7114 117.238 20.3439C117.483 19.8563 117.701 19.3562 117.948 18.8705C118.014 18.7405 118.124 18.6318 118.307 18.6146C118.471 18.5995 118.633 18.5818 118.797 18.5818C119.665 18.5818 120.534 18.582 121.403 18.5815C121.465 18.5815 121.53 18.5874 121.59 18.574C121.652 18.5601 121.707 18.5339 121.658 18.4433C121.387 17.9423 121.172 17.4141 120.926 16.901C120.664 16.3547 120.398 15.81 120.135 15.2644C119.943 14.8686 119.738 14.4801 119.542 14.0864C119.469 13.9404 119.403 13.7911 119.342 13.6396C119.272 13.4632 119.11 13.4087 118.958 13.3688C118.808 13.3297 118.699 13.4492 118.602 13.5516C118.465 13.6946 118.413 13.8871 118.327 14.0576C118.07 14.5678 117.83 15.087 117.579 15.6003C117.298 16.1731 117.02 16.747 116.745 17.3226C116.458 17.9229 116.161 18.5183 115.878 19.1198C115.596 19.7206 115.28 20.3047 115.007 20.9093C114.737 21.507 114.43 22.0864 114.159 22.6827C113.89 23.2741 113.587 23.8478 113.307 24.433C112.971 25.1332 112.637 25.8345 112.301 26.5344C112.065 27.0243 111.825 27.5124 111.588 28.0021C111.291 28.617 110.998 29.2337 110.7 29.8477C110.459 30.3435 110.212 30.8363 109.97 31.3317C109.792 31.6968 109.617 32.0634 109.442 32.4302C109.433 32.45 109.437 32.4767 109.436 32.5C107.933 32.4996 106.43 32.4996 104.928 32.4996Z" fill="#5B8388"/>
<path d="M18.8054 32.3646C18.7643 32.4535 18.6835 32.4507 18.6047 32.4509C18.0815 32.4526 17.5568 32.4641 17.0372 32.403C16.7341 32.3674 16.4335 32.3459 16.1297 32.3565C15.8583 32.3438 15.5829 32.3771 15.319 32.2796C15.2837 32.2667 15.2412 32.2688 15.2025 32.2702C14.8186 32.2863 14.4507 32.1466 14.0677 32.1551C13.8198 32.0223 13.5364 32.0754 13.2723 32.0077C13.044 31.9492 12.8015 31.9102 12.5648 31.8685C12.338 31.8284 12.1067 31.7968 11.8865 31.7145C11.7567 31.6659 11.6151 31.6468 11.4798 31.6163C10.8804 31.4816 10.2979 31.2908 9.72029 31.0891C9.19083 30.9042 8.67358 30.6846 8.15962 30.4546C7.25637 30.0505 6.40243 29.5671 5.59098 29.0041C4.68303 28.374 3.87464 27.6319 3.15006 26.7961C2.55345 26.108 2.05099 25.3546 1.62156 24.5526C1.3553 24.0553 1.12614 23.5406 0.939481 23.0058C0.802127 22.6124 0.670408 22.2194 0.558881 21.8167C0.384898 21.1895 0.266093 20.5552 0.172175 19.9119C0.115355 19.5222 0.10432 19.1309 0.0601788 18.7419C-0.0144856 18.0837 -0.0156596 17.4242 0.0345862 16.7686C0.0674574 16.341 0.074736 15.9098 0.154801 15.4833C0.209742 15.1917 0.232987 14.8912 0.29732 14.601C0.372924 14.2597 0.441249 13.9163 0.548315 13.5811C0.623449 13.3459 0.683086 13.1048 0.764795 12.871C0.939481 12.3698 1.14469 11.8822 1.37972 11.4059C1.59456 10.9702 1.83757 10.5513 2.105 10.1481C2.3513 9.77684 2.62507 9.42395 2.91034 9.08025C3.44285 8.4384 4.04228 7.86376 4.6936 7.34929C5.47429 6.73243 6.30874 6.19437 7.20025 5.74877C7.61654 5.54071 8.03847 5.3487 8.46861 5.17036C8.75318 5.05242 9.03963 4.93141 9.32866 4.83375C9.56885 4.7526 9.81656 4.67405 10.0603 4.59904C10.3423 4.51199 10.6362 4.46387 10.9116 4.34852C11.0283 4.29969 11.1673 4.28271 11.2913 4.26242C11.5054 4.22751 11.709 4.15014 11.9278 4.12961C12.1335 4.11027 12.3375 4.05413 12.5442 4.02087C13.021 3.94397 13.496 3.86541 13.9802 3.84324C14.2206 3.83215 14.4641 3.83899 14.7026 3.78498C14.7766 3.76823 14.8578 3.78238 14.9459 3.78238C14.9407 3.87697 14.8886 3.91707 14.8137 3.96732C14.368 4.26501 13.9259 4.56978 13.5101 4.90829C12.7442 5.53222 12.0039 6.18564 11.35 6.93034C10.9055 7.43657 10.4834 7.95883 10.0953 8.5127C9.64211 9.15928 9.25564 9.84077 8.92458 10.5532C8.66748 11.1066 8.46227 11.6821 8.3005 12.2747C8.20376 12.6297 8.12158 12.9876 8.05913 13.3473C7.98705 13.7632 7.91051 14.1819 7.91497 14.6084C7.91919 15.0091 7.91684 15.4101 7.92647 15.8109C7.93445 16.1485 8.01781 16.475 8.08637 16.8038C8.16173 17.1649 8.27091 17.5136 8.39606 17.8596C8.57615 18.3581 8.81282 18.8299 9.09269 19.2752C9.45193 19.8468 9.87925 20.3681 10.3704 20.8338C10.8839 21.3204 11.4493 21.7353 12.0666 22.0788C12.5366 22.3404 13.0281 22.5591 13.539 22.7192C14.0436 22.8775 14.5608 22.9889 15.0889 23.0591C15.7986 23.1535 16.5075 23.149 17.2166 23.104C17.7688 23.0688 18.3222 23.0143 18.8679 22.9235C19.2339 22.8626 19.599 22.7787 19.9587 22.6718C20.2804 22.5763 20.2658 22.5987 20.2534 22.898C20.2337 23.375 20.0475 23.7951 19.812 24.1992C19.3964 24.9125 18.7974 25.461 18.1996 26.009C17.73 26.4395 17.214 26.8167 16.7533 27.2578C16.3337 27.6597 15.9001 28.0485 15.612 28.5686C15.4002 28.951 15.3368 29.356 15.387 29.7825C15.4014 29.904 15.4849 30.0123 15.4751 30.1422C15.4643 30.2191 15.4394 30.3026 15.5547 30.3239C15.5617 30.356 15.569 30.388 15.5761 30.4201C15.6263 30.5855 15.6927 30.74 15.8472 30.8369L15.8503 30.8509C15.8362 30.9204 15.8796 30.9334 15.9336 30.9358C15.9402 30.9523 15.9466 30.9688 15.9529 30.9853C16.0114 31.0957 16.0825 31.1915 16.2154 31.217L16.2243 31.2323C16.3614 31.4573 16.5866 31.5576 16.8158 31.6517C16.8158 31.6517 16.8345 31.6649 16.8343 31.6647C16.8716 31.7152 16.9158 31.7588 16.9742 31.7838C17.2633 31.9077 17.5457 32.0534 17.8449 32.1435C17.9853 32.1858 18.1184 32.3058 18.2849 32.2495C18.3196 32.2537 18.3546 32.2579 18.3893 32.2622C18.4387 32.3622 18.5218 32.3683 18.6159 32.3438C18.6791 32.3518 18.7422 32.3582 18.8054 32.3646Z" fill="white"/>
<path d="M14.8212 0.528511C14.994 0.481804 15.1616 0.506101 15.3279 0.507988C15.3744 0.50846 15.4211 0.525444 15.4673 0.524029C16.0771 0.505393 16.685 0.567669 17.2903 0.609657C17.784 0.643861 18.2879 0.638672 18.7751 0.763458C18.82 0.775017 18.8686 0.777847 18.915 0.775488C19.2541 0.758032 19.5805 0.856635 19.9122 0.898152C20.2632 0.942027 20.6161 1.00595 20.9624 1.08333C21.2806 1.15433 21.6081 1.1857 21.9178 1.28171C22.204 1.37017 22.4989 1.42207 22.783 1.5235C23.0052 1.60276 23.2406 1.65064 23.4661 1.7299C23.7767 1.83936 24.1014 1.91319 24.4038 2.04081C24.7572 2.19013 25.119 2.31798 25.4672 2.48239C25.8966 2.68502 26.3218 2.89355 26.7403 3.11812C27.589 3.57363 28.3697 4.12962 29.1133 4.73916C29.6073 5.14419 30.0515 5.60488 30.4796 6.07737C30.6918 6.31185 30.8874 6.56567 31.0752 6.8242C31.2945 7.12614 31.5084 7.43068 31.7078 7.74583C31.9499 8.12868 32.1696 8.52497 32.3631 8.93519C32.4861 9.19608 32.6153 9.45627 32.7115 9.72731C32.813 10.013 32.9522 10.2894 33.017 10.5824C33.0799 10.8664 33.2208 11.1304 33.2262 11.4274C33.3715 11.5998 33.2581 11.8463 33.3957 12.0247C33.4239 12.0612 33.4171 12.132 33.4124 12.1858C33.403 12.2912 33.4168 12.3884 33.4732 12.4797C33.4892 12.5054 33.5037 12.5391 33.5011 12.5677C33.4699 12.9076 33.6425 13.2265 33.6005 13.5681C33.5911 13.6443 33.5993 13.7273 33.6197 13.8016C33.6765 14.008 33.6948 14.2173 33.6984 14.43C33.7096 15.1217 33.7122 15.8133 33.6913 16.5049C33.6901 16.5436 33.6831 16.5828 33.6749 16.6208C33.6284 16.8347 33.5819 17.047 33.603 17.2706C33.6148 17.3942 33.6035 17.5226 33.5479 17.64C33.5131 17.7132 33.5061 17.7901 33.5101 17.8698C33.5162 17.9962 33.5138 18.1213 33.4413 18.2335C33.4103 18.2814 33.4016 18.3387 33.4082 18.3928C33.4234 18.515 33.4016 18.6263 33.3365 18.7308C33.3248 18.7497 33.3199 18.7759 33.3192 18.7987C33.31 19.1101 33.1879 19.3977 33.1079 19.6902C33.0226 20.0018 32.8876 20.3049 32.7754 20.6106C32.6101 21.0602 32.3807 21.4756 32.1792 21.9056C32.0959 22.0837 31.987 22.2503 31.8804 22.4178C31.7397 22.6388 31.6082 22.8653 31.4479 23.0733C31.3006 23.2639 31.1572 23.4573 31.0116 23.6494C30.9926 23.6744 30.9684 23.6954 30.9508 23.7208C30.6183 24.2046 30.1941 24.6071 29.77 25.0027C29.3779 25.3683 28.9553 25.7044 28.5172 26.0163C28.0011 26.3838 27.466 26.7232 26.9117 27.028C26.5008 27.2538 26.0683 27.4401 25.6442 27.6416C25.1737 27.865 24.6802 28.0303 24.1927 28.2096C23.8638 28.3306 23.5238 28.4228 23.1857 28.5158C22.819 28.6167 22.452 28.7234 22.0784 28.7894C21.8488 28.83 21.614 28.8633 21.3905 28.9189C21.0564 29.0022 20.7077 28.9675 20.3799 29.0798C20.3015 29.1067 20.2092 29.0942 20.1233 29.0956C19.8265 29.1003 19.533 29.1343 19.2395 29.1765C19.132 29.1921 19.0209 29.1834 18.9115 29.1841C18.8733 29.1843 18.8254 29.1881 18.8129 29.1421C18.7991 29.0906 18.8347 29.0553 18.8749 29.0272C18.9507 28.9744 19.0273 28.9225 19.1024 28.8687C19.6652 28.4651 20.2106 28.0405 20.7424 27.5946C21.2475 27.1712 21.7044 26.7018 22.1658 26.235C22.5504 25.846 22.8964 25.4242 23.2352 24.9937C23.6328 24.4889 23.9868 23.9551 24.3083 23.4031C24.5776 22.9407 24.811 22.4546 25.003 21.95C25.1162 21.6528 25.2526 21.36 25.328 21.0541C25.4071 20.7328 25.5381 20.4271 25.5787 20.0905C25.6022 19.8966 25.6543 19.6961 25.6898 19.4981C25.7166 19.3481 25.7943 19.2002 25.7222 19.0393C25.7001 18.9903 25.7328 18.933 25.7452 18.8792C25.8563 18.4015 25.8602 17.9153 25.8415 17.4294C25.8351 17.2671 25.7886 17.1064 25.764 16.9444C25.7501 16.8533 25.7133 16.7649 25.749 16.6672C25.7633 16.6278 25.7508 16.5726 25.7363 16.5295C25.6494 16.2733 25.6313 16.0001 25.5543 15.7444C25.5038 15.5772 25.4343 15.4069 25.3803 15.2422C25.2949 14.9815 25.1685 14.7449 25.0608 14.4975C24.8814 14.0852 24.6548 13.7028 24.3918 13.3364C24.0972 12.926 23.7811 12.5391 23.4184 12.1879C22.9798 11.763 22.4945 11.4005 21.9815 11.075C21.5598 10.8072 21.108 10.593 20.6471 10.4055C20.4158 10.3114 20.1705 10.2413 19.9286 10.1691C19.7526 10.1168 19.5591 10.1208 19.3971 10.0198C19.3844 10.0118 19.367 10.0066 19.3522 10.0073C19.0618 10.0215 18.7927 9.89126 18.5013 9.88937C18.112 9.88677 17.7277 9.78416 17.3349 9.81388C16.7749 9.85611 16.2123 9.8712 15.6545 9.92263C15.2483 9.96014 14.8374 10.0156 14.4382 10.1078C14.164 10.1713 13.8801 10.2161 13.6212 10.338C13.5279 10.3819 13.4861 10.3378 13.4692 10.2588C13.4563 10.1984 13.4441 10.1281 13.4624 10.0724C13.5524 9.80044 13.5751 9.51336 13.6888 9.24374C13.9931 8.52191 14.4875 7.94516 15.0419 7.41888C15.3945 7.08392 15.7636 6.76381 16.141 6.45456C16.7486 5.9566 17.3358 5.43363 17.8524 4.83777C18.148 4.4969 18.3163 4.09164 18.3957 3.64958C18.4135 3.55074 18.4154 3.4479 18.3755 3.34764C18.3497 3.28301 18.333 3.21177 18.3274 3.14242C18.2921 2.70531 18.0933 2.34652 17.8054 2.0309C17.3588 1.54095 16.8134 1.20575 16.1957 0.973165C15.7589 0.808749 15.3187 0.66344 14.8616 0.570263C14.8503 0.567904 14.8416 0.549977 14.8212 0.528511Z" fill="#5B8388"/>
<path d="M61.7038 16.7216C61.7038 13.8676 61.7041 11.0133 61.7031 8.15923C61.7031 7.95731 61.7339 7.76718 61.9109 7.64499C62.0293 7.56313 62.161 7.50746 62.3143 7.50888C62.8543 7.51359 63.3943 7.511 63.9344 7.511C67.0179 7.511 70.1015 7.50557 73.1848 7.51855C73.5048 7.51996 73.8323 7.56478 74.1509 7.61149C74.5257 7.66645 74.9006 7.76128 75.2571 7.89031C75.9983 8.15852 76.6785 8.54326 77.2648 9.08085C77.6787 9.4604 78.0419 9.88265 78.3364 10.3634C78.6247 10.834 78.8513 11.3291 79.0088 11.8618C79.2711 12.7483 79.3265 13.6517 79.2511 14.563C79.2166 14.9807 79.1316 15.3957 79.0145 15.8042C78.8078 16.5242 78.4834 17.1781 78.0419 17.7793C77.6174 18.3575 77.1 18.8305 76.4928 19.2062C76.3298 19.307 76.1676 19.5884 76.3115 19.8153C76.42 19.9861 76.5259 20.1588 76.6384 20.3272C77.2044 21.1743 77.771 22.0211 78.3401 22.8663C78.729 23.4436 79.1227 24.0172 79.5136 24.5931C79.6425 24.7829 79.786 24.9653 79.8926 25.1672C80.0292 25.4253 79.9783 25.9107 79.5266 25.9407C79.4409 25.9464 79.3547 25.9482 79.2685 25.9482C78.1493 25.9487 77.0302 25.9426 75.9112 25.9525C75.5942 25.9553 75.3907 25.8567 75.2148 25.5668C74.9553 25.1396 74.6689 24.7263 74.3942 24.3072C73.8786 23.52 73.3703 22.7281 72.8549 21.9405C72.5194 21.4276 72.1714 20.9231 71.841 20.4069C71.7359 20.2425 71.6006 20.1762 71.4189 20.1758C71.012 20.1751 70.6049 20.1755 70.198 20.1753C69.5093 20.1753 68.8204 20.1713 68.1318 20.1776C67.9594 20.1793 67.8303 20.1099 67.719 19.9937C67.6481 19.9198 67.6026 19.8358 67.6051 19.7214C67.6115 19.4386 67.6016 19.1555 67.6014 18.8725C67.6009 18.157 67.6044 17.4415 67.6009 16.7259C67.6 16.5371 67.6702 16.3996 67.8223 16.2887C67.877 16.2489 67.9266 16.2255 67.9888 16.2222C68.0825 16.217 68.1764 16.2118 68.2701 16.2118C69.6161 16.2111 70.9624 16.2208 72.3083 16.2043C72.6079 16.2005 72.9096 16.1432 73.2068 16.0573C73.6313 15.9347 73.9685 15.7056 74.2482 15.3737C74.4247 15.1643 74.5146 14.9166 74.6006 14.6587C74.7166 14.311 74.7034 13.9558 74.6713 13.6104C74.5989 12.836 74.2268 12.2489 73.4982 11.9177C73.2026 11.7832 72.8925 11.7351 72.5752 11.6941C72.2245 11.6485 71.8739 11.6525 71.5224 11.6523C70.0512 11.6518 68.5798 11.6521 67.1085 11.6521C67.0304 11.6521 66.9508 11.6438 66.874 11.6544C66.4887 11.7077 66.3257 11.8358 66.3135 12.2331C66.3114 12.3038 66.3131 12.3746 66.3131 12.4454C66.3131 16.7148 66.3131 20.9844 66.3128 25.2538C66.3128 25.3481 66.3147 25.443 66.3048 25.5364C66.2814 25.7551 66.1337 25.9065 65.9174 25.9355C65.8324 25.9468 65.7458 25.9482 65.6599 25.9485C64.5798 25.9492 63.4998 25.949 62.4197 25.949C62.3885 25.949 62.357 25.9494 62.3258 25.9487C61.8985 25.94 61.7036 25.7407 61.7036 25.3083C61.7036 22.4457 61.7038 19.5837 61.7038 16.7216Z" fill="white"/>
<path d="M100.517 25.9484C99.8906 25.9486 99.2646 25.9453 98.6387 25.9498C98.278 25.9524 98.1686 25.9002 97.9824 25.4896C97.8005 25.0883 97.6176 24.687 97.4448 24.2816C97.2856 23.9081 97.1231 23.5366 96.9531 23.1679C96.7648 22.7593 96.5976 22.3411 96.4147 21.93C96.1961 21.4391 95.9865 20.9439 95.7618 20.4563C95.5174 19.9263 95.284 19.3908 95.0485 18.8575C94.8426 18.3906 94.6336 17.9238 94.4382 17.4516C94.1581 16.7743 93.8379 16.1138 93.5399 15.4441C93.3227 14.9561 93.1267 14.4584 92.8978 13.976C92.6501 13.4537 92.4369 12.9166 92.1856 12.3957C91.9659 11.9404 91.7867 11.4654 91.582 11.0023C91.3423 10.4602 91.0932 9.9224 90.8508 9.38151C90.6851 9.01139 90.5106 8.64458 90.3641 8.26668C90.2289 7.9178 90.3763 7.52363 90.8678 7.51632C92.0492 7.49886 93.2312 7.51136 94.4129 7.51018C94.6439 7.50995 94.8167 7.63214 94.9139 7.81613C95.0954 8.15983 95.2403 8.52286 95.4037 8.87623C95.5756 9.24776 95.7519 9.61716 95.9257 9.98798C96.1384 10.4418 96.3509 10.8957 96.5626 11.3498C96.7277 11.7039 96.889 12.0598 97.0562 12.4129C97.1985 12.7132 97.3504 13.0088 97.4915 13.3096C97.6739 13.6983 97.8484 14.0908 98.0289 14.4803C98.4673 15.4257 98.9068 16.3705 99.3466 17.3152C99.5981 17.8554 99.8472 18.3965 100.105 18.9337C100.184 19.0986 100.311 19.2 100.514 19.2068C100.72 19.2139 100.85 19.1059 100.931 18.9497C101.154 18.5185 101.361 18.0788 101.585 17.6474C101.839 17.1576 102.077 16.6597 102.324 16.1655C102.626 15.5578 102.927 14.9495 103.233 14.3437C103.44 13.9349 103.665 13.5355 103.863 13.1225C104.147 12.5264 104.443 11.936 104.739 11.3453C105.043 10.7369 105.344 10.1267 105.65 9.51879C105.887 9.0463 106.133 8.57806 106.369 8.1051C106.639 7.5642 106.902 7.01906 107.171 6.47745C107.443 5.93019 107.719 5.38433 107.994 4.83848C108.37 4.09118 108.751 3.34576 109.124 2.59705C109.223 2.39819 109.31 2.19391 109.424 2.00213C109.53 1.82498 109.663 1.73227 109.882 1.73369C111.087 1.74123 112.292 1.75114 113.497 1.73109C114.052 1.72189 114.178 2.18636 113.998 2.55152C113.781 2.99122 113.58 3.43776 113.365 3.87817C113.156 4.30749 112.951 4.73917 112.744 5.16967C112.525 5.62471 112.309 6.08139 112.099 6.5402C111.874 7.0292 111.604 7.49768 111.39 7.99093C111.195 8.44148 110.979 8.88212 110.769 9.32513C110.51 9.87428 110.248 10.4227 109.98 10.9683C109.764 11.409 109.557 11.8541 109.348 12.2978C109.215 12.58 109.086 12.8644 108.952 13.1459C108.729 13.6129 108.504 14.079 108.285 14.548C108.068 15.0134 107.839 15.4746 107.617 15.9383C107.29 16.6193 106.971 17.3039 106.643 17.9844C106.41 18.4685 106.167 18.9497 105.941 19.4366C105.707 19.9426 105.46 20.4431 105.231 20.9524C104.941 21.5985 104.607 22.2243 104.303 22.8641C103.999 23.5012 103.713 24.1466 103.41 24.7838C103.283 25.051 103.148 25.3138 103.025 25.5834C102.916 25.8207 102.734 25.9599 102.441 25.9526C101.801 25.937 101.158 25.9481 100.517 25.9484Z" fill="white"/>
<path d="M41.0729 16.7241C41.0729 13.8625 41.0727 11.0012 41.0743 8.13957C41.0743 8.02469 41.0544 7.90745 41.1234 7.79706C41.2382 7.61353 41.4101 7.53687 41.6118 7.51234C41.6888 7.5029 41.7681 7.51116 41.8463 7.51116C45.4065 7.51116 48.9669 7.50455 52.5271 7.52177C52.8532 7.52342 53.1932 7.55267 53.5172 7.61353C53.9736 7.69916 54.4364 7.79611 54.8619 7.98553C55.5158 8.27662 56.1321 8.634 56.6604 9.13456C57.107 9.55751 57.4927 10.0213 57.8005 10.5553C58.0945 11.0656 58.3011 11.6062 58.4434 12.1775C58.6413 12.973 58.6688 13.7816 58.597 14.5872C58.5047 15.6234 58.2013 16.5953 57.6106 17.4733C57.068 18.2798 56.3791 18.9094 55.5453 19.3916C55.1063 19.6454 54.6365 19.8313 54.1497 19.9532C53.636 20.0818 53.1117 20.1766 52.5761 20.1759C50.9016 20.174 49.2273 20.1726 47.5527 20.178C47.3074 20.1787 47.1376 20.0903 47.0247 19.8733C46.9892 19.8053 46.9888 19.7379 46.9885 19.6685C46.9876 18.6858 46.9859 17.7033 46.989 16.7206C46.9899 16.4179 47.1735 16.2273 47.472 16.2158C47.6985 16.207 47.9256 16.212 48.1526 16.212C49.3186 16.2118 50.4844 16.2186 51.6501 16.2075C51.9539 16.2047 52.2528 16.137 52.551 16.0551C53.0558 15.9164 53.4334 15.6293 53.7109 15.1944C53.8513 14.9743 53.9304 14.7337 53.9788 14.4756C54.0507 14.0913 54.045 13.7101 53.9692 13.3315C53.8696 12.8343 53.6222 12.4205 53.2045 12.1271C52.8563 11.8825 52.4656 11.7534 52.0392 11.7107C51.6656 11.6732 51.2932 11.6501 50.9178 11.651C49.3841 11.6548 47.8505 11.6525 46.3168 11.6525C46.2388 11.6525 46.1602 11.6454 46.0839 11.6706C45.808 11.7626 45.6889 11.856 45.6664 12.2344C45.6626 12.2971 45.6659 12.3601 45.6659 12.4231C45.6659 16.6918 45.6659 20.9605 45.6659 25.2292C45.6659 25.2841 45.6603 25.3398 45.6669 25.394C45.7047 25.7118 45.4635 25.9541 45.1224 25.9505C44.6373 25.9453 44.1522 25.9493 43.6671 25.9493C43.0099 25.9493 42.3525 25.951 41.6953 25.9484C41.573 25.9479 41.4502 25.9559 41.334 25.8868C41.1384 25.7701 41.0696 25.6059 41.0703 25.3797C41.0755 23.3751 41.0734 21.3705 41.0734 19.3659C41.0729 18.485 41.0729 17.6047 41.0729 16.7241Z" fill="white"/>
<path d="M156.382 19.1165C155.922 19.597 155.465 20.0735 155.01 20.551C154.777 20.7944 154.555 21.0489 154.313 21.282C154.123 21.4646 154.064 21.6811 154.064 21.9312C154.066 22.9691 154.065 24.007 154.065 25.0449C154.065 25.1707 154.058 25.2969 154.066 25.4223C154.084 25.7196 153.88 25.9543 153.546 25.9472C153.492 25.946 153.437 25.9481 153.382 25.9481C152.325 25.9481 151.269 25.9481 150.212 25.9481C150.15 25.9481 150.087 25.9493 150.024 25.9472C149.656 25.9342 149.457 25.7285 149.457 25.3565C149.457 19.6088 149.457 13.8609 149.457 8.11315C149.457 7.74374 149.69 7.51115 150.064 7.51068C151.198 7.5095 152.333 7.50691 153.468 7.51233C153.842 7.51398 154.075 7.74775 154.072 8.10442C154.058 10.18 154.065 12.2561 154.065 14.3317C154.065 14.4412 154.068 14.5471 154.108 14.6551C154.236 15.0078 154.566 15.096 154.837 14.8433C155.194 14.5103 155.538 14.164 155.89 13.825C156.811 12.9369 157.704 12.0202 158.626 11.134C159.662 10.1383 160.684 9.12818 161.703 8.11527C161.834 7.98529 161.969 7.86004 162.099 7.72841C162.245 7.5805 162.423 7.50809 162.636 7.50879C163.802 7.5121 164.968 7.51115 166.135 7.5095C166.335 7.50927 166.51 7.57461 166.631 7.73195C166.795 7.94425 166.766 8.20373 166.57 8.41603C166.417 8.58186 166.259 8.74368 166.103 8.90668C165.45 9.58864 164.794 10.269 164.143 10.9528C163.384 11.7485 162.629 12.5474 161.872 13.344C161.168 14.0838 160.464 14.8224 159.76 15.5616C159.632 15.6954 159.507 15.831 159.378 15.9629C159.305 16.0379 159.31 16.0962 159.379 16.1794C159.888 16.8012 160.392 17.4275 160.898 18.0526C161.27 18.514 161.642 18.9764 162.015 19.4378C162.326 19.8214 162.637 20.2044 162.949 20.5868C163.314 21.0348 163.681 21.4808 164.046 21.929C164.611 22.6228 165.175 23.3173 165.738 24.0122C166.012 24.3512 166.282 24.6939 166.56 25.0305C166.615 25.098 166.661 25.1704 166.7 25.2454C166.848 25.5283 166.649 25.8998 166.333 25.9371C166.248 25.9472 166.161 25.9477 166.075 25.9477C164.956 25.9484 163.837 25.9425 162.718 25.9519C162.434 25.9543 162.221 25.8781 162.031 25.6502C161.529 25.048 160.996 24.4717 160.489 23.8733C159.912 23.1922 159.332 22.514 158.743 21.8434C158.187 21.21 157.648 20.5616 157.101 19.9202C156.911 19.6973 156.717 19.4781 156.53 19.2521C156.486 19.1981 156.433 19.1599 156.382 19.1165Z" fill="white"/>
<path d="M182.877 18.5016C182.538 17.8458 182.197 17.1914 181.861 16.5338C181.559 15.9393 181.264 15.3404 180.963 14.7448C180.775 14.3713 180.581 14.0003 180.391 13.6278C180.301 13.4533 180.179 13.3341 179.965 13.3445C179.755 13.3547 179.632 13.4794 179.544 13.6516C179.256 14.2164 178.972 14.7827 178.684 15.3475C178.237 16.2247 177.788 17.1006 177.34 17.9774C176.871 18.8967 176.403 19.8159 175.936 20.7362C175.474 21.6455 175.019 22.5579 174.554 23.4652C174.194 24.1672 173.821 24.8626 173.459 25.5634C173.424 25.6309 173.407 25.705 173.356 25.7679C173.278 25.8635 173.19 25.9288 173.065 25.9354C172.987 25.9397 172.909 25.9477 172.831 25.9479C171.696 25.9486 170.561 25.9484 169.426 25.9486C169.269 25.9486 169.115 25.9434 168.986 25.8314C168.838 25.7035 168.776 25.357 168.877 25.1641C169.102 24.7331 169.327 24.3024 169.553 23.8723C169.889 23.2361 170.217 22.5959 170.548 21.9576C170.875 21.3275 171.192 20.6906 171.514 20.0575C171.986 19.13 172.465 18.2055 172.94 17.2799C173.269 16.6416 173.606 16.0077 173.92 15.3621C174.108 14.9769 174.313 14.6006 174.511 14.2206C174.697 13.8654 174.878 13.508 175.057 13.1497C175.321 12.6239 175.611 12.1115 175.877 11.5867C176.074 11.1979 176.275 10.812 176.478 10.4265C176.687 10.0286 176.875 9.61932 177.081 9.21925C177.32 8.75455 177.579 8.30022 177.807 7.83033C177.924 7.58972 178.118 7.51706 178.345 7.51447C179.135 7.50503 179.925 7.51093 180.716 7.51093C180.966 7.51093 181.218 7.52862 181.467 7.50692C181.881 7.47083 182.137 7.66025 182.297 8.02588C182.536 8.57433 182.834 9.09305 183.099 9.62876C183.436 10.3093 183.787 10.9825 184.136 11.6565C184.431 12.2259 184.705 12.8064 185.009 13.37C185.351 14.0034 185.669 14.6492 185.999 15.288C186.364 15.9936 186.726 16.7008 187.087 17.4082C187.332 17.8887 187.582 18.3673 187.824 18.849C188.178 19.551 188.539 20.2497 188.893 20.9513C189.313 21.7826 189.729 22.6162 190.16 23.4416C190.425 23.9495 190.684 24.4599 190.948 24.9685C190.982 25.036 190.997 25.0978 190.998 25.1674C191 25.3325 191.001 25.4976 190.998 25.6627C190.996 25.8139 190.937 25.8937 190.791 25.9236C190.693 25.9439 190.589 25.947 190.488 25.9472C189.377 25.9486 188.265 25.9361 187.154 25.955C186.782 25.9614 186.562 25.8139 186.412 25.4894C186.128 24.873 185.813 24.2726 185.493 23.6742C185.352 23.4105 185.223 23.1385 185.098 22.8663C185.053 22.7686 185.001 22.7344 184.91 22.7301C184.847 22.7273 184.785 22.7287 184.722 22.7287C182.421 22.7287 180.12 22.7283 177.82 22.7297C177.685 22.7297 177.555 22.7245 177.432 22.6627C177.2 22.5457 177.095 22.2279 177.2 22.0116C177.577 21.2299 177.938 20.4406 178.309 19.6555C178.42 19.4201 178.557 19.1958 178.655 18.9554C178.779 18.6525 179.025 18.557 179.308 18.5527C180.114 18.541 180.92 18.5485 181.726 18.5485C182.039 18.5485 182.352 18.5497 182.665 18.5476C182.732 18.5476 182.805 18.5671 182.877 18.5016Z" fill="white"/>
<path d="M137.093 7.51102C139.777 7.51102 142.462 7.5129 145.146 7.50889C145.584 7.50819 145.823 7.81791 145.818 8.1675C145.804 9.12663 145.813 10.086 145.813 11.0451C145.814 11.2577 145.764 11.4405 145.575 11.5709C145.513 11.6136 145.455 11.6403 145.385 11.6452C145.307 11.6509 145.228 11.6516 145.15 11.6516C143.444 11.6518 141.738 11.6521 140.032 11.6514C139.841 11.6514 139.663 11.679 139.518 11.8231C139.459 11.8818 139.421 11.9418 139.42 12.0267C139.418 12.1444 139.406 12.2621 139.406 12.3798C139.406 16.6808 139.406 20.9816 139.406 25.2825C139.406 25.409 139.401 25.53 139.345 25.6496C139.27 25.8133 139.148 25.9058 138.976 25.9341C138.892 25.948 138.805 25.9482 138.719 25.9482C137.623 25.9489 136.528 25.9499 135.432 25.9471C135.295 25.9468 135.153 25.9657 135.026 25.8763C134.86 25.759 134.792 25.5923 134.769 25.401C134.76 25.3234 134.767 25.2439 134.767 25.1653C134.767 20.8565 134.767 16.5478 134.766 12.239C134.766 12.1149 134.782 11.9894 134.708 11.8733C134.607 11.7167 134.445 11.6896 134.286 11.6587C134.21 11.6441 134.13 11.6521 134.052 11.6521C132.377 11.6518 130.702 11.6521 129.027 11.6518C128.957 11.6518 128.886 11.654 128.816 11.6497C128.582 11.6351 128.408 11.4733 128.375 11.2397C128.368 11.1855 128.369 11.1301 128.369 11.0751C128.369 10.0843 128.37 9.09361 128.368 8.10287C128.368 7.96723 128.373 7.83466 128.467 7.72615C128.581 7.59428 128.731 7.52965 128.9 7.5122C128.993 7.50252 129.088 7.51102 129.181 7.51102C131.818 7.51102 134.456 7.51102 137.093 7.51102Z" fill="white"/>
<path d="M82.7046 16.7384C82.7046 13.8846 82.7041 11.031 82.706 8.17724C82.706 8.04703 82.6854 7.91516 82.7661 7.79085C82.8946 7.5927 83.0735 7.51038 83.301 7.51038C84.4043 7.51085 85.5076 7.51085 86.6109 7.51038C86.7405 7.51038 86.8621 7.51509 86.9872 7.57878C87.1575 7.66536 87.273 7.77434 87.2868 7.97083C87.2918 8.04137 87.2918 8.11213 87.2918 8.1829C87.292 13.8903 87.292 19.5977 87.2913 25.3053C87.2913 25.4301 87.3105 25.5593 87.2453 25.6749C87.1607 25.8245 87.0459 25.9342 86.8623 25.9417C86.7921 25.9445 86.7217 25.9483 86.6512 25.9483C85.5557 25.9488 84.4604 25.9486 83.3648 25.9483C83.3414 25.9483 83.3177 25.9464 83.2944 25.9486C82.8899 25.9858 82.6973 25.6877 82.6987 25.3468C82.7093 22.4774 82.7046 19.608 82.7046 16.7384Z" fill="white"/>
<path d="M18.2865 32.2508C18.1198 32.3072 17.9869 32.1873 17.8465 32.1449C17.5474 32.0548 17.2649 31.909 16.9759 31.7851C16.9176 31.7601 16.8733 31.7165 16.8359 31.666C17.0416 31.6802 17.1985 31.8177 17.3804 31.8911C17.6363 31.9944 17.8934 32.0897 18.1578 32.1663C18.2099 32.1817 18.2647 32.1904 18.2865 32.2508Z" fill="#5B8388"/>
<path d="M16.8141 31.6525C16.5847 31.5584 16.3598 31.4583 16.2227 31.2334C16.4403 31.3442 16.6314 31.4922 16.8141 31.6525Z" fill="#5B8388"/>
<path d="M15.8493 30.8379C15.6948 30.741 15.6284 30.5866 15.5781 30.4214C15.5934 30.4233 15.6204 30.4216 15.6223 30.4275C15.6688 30.5807 15.8249 30.6729 15.8493 30.8379Z" fill="#5B8388"/>
<path d="M16.2156 31.2178C16.0827 31.1923 16.0116 31.0964 15.9531 30.9863C16.0785 31.0203 16.1346 31.1334 16.2156 31.2178Z" fill="#5B8388"/>
<path d="M18.6162 32.3448C18.5223 32.3694 18.4392 32.363 18.3896 32.2633C18.4829 32.2411 18.569 32.239 18.6162 32.3448Z" fill="#5B8388"/>
<path d="M15.5554 30.325C15.4401 30.3038 15.465 30.2203 15.4758 30.1435C15.5636 30.177 15.588 30.2382 15.5554 30.325Z" fill="#5B8388"/>
<path d="M15.9354 30.9381C15.8806 30.9357 15.8366 30.9228 15.8509 30.8521C15.8866 30.8736 15.9387 30.8783 15.9354 30.9381Z" fill="#5B8388"/>
</svg>
